<?xml version="1.0" encoding="UTF-8" standalone="no"?><!-- Generator: Gravit.io --><svg xmlns="http://www.w3.org/2000/svg" xmlns:xlink="http://www.w3.org/1999/xlink" style="isolation:isolate" viewBox="0 0 720 720" width="720pt" height="720pt"><defs><clipPath id="_clipPath_nvmj2mZq1RI9VFVPoSRktDYBL6tvuFth"><rect width="720" height="720"/></clipPath></defs><g clip-path="url(#_clipPath_nvmj2mZq1RI9VFVPoSRktDYBL6tvuFth)"><rect x="0" y="0" width="720" height="720" transform="matrix(1,0,0,1,0,0)" fill="rgb(0,0,0)"/><path d=" M 233.043 275.242 L 233.043 275.242 Q 233.043 295.623 222.494 312.646 L 222.494 312.646 L 222.494 312.646 Q 211.944 329.669 191.803 340.459 L 191.803 340.459 L 191.803 340.459 Q 171.663 351.249 143.85 353.167 L 143.85 353.167 L 133.54 410.95 L 133.54 410.95 Q 127.546 444.278 100.932 444.278 L 100.932 444.278 L 100.932 444.278 Q 86.306 444.278 73.958 435.646 L 73.958 435.646 L 73.958 435.646 Q 61.61 427.015 54.177 409.272 L 54.177 409.272 L 54.177 409.272 Q 46.744 391.529 46.744 365.634 L 46.744 365.634 L 46.744 365.634 Q 46.744 316.962 62.449 283.035 L 62.449 283.035 L 62.449 283.035 Q 78.154 249.108 104.648 232.204 L 104.648 232.204 L 104.648 232.204 Q 131.142 215.301 163.031 215.301 L 163.031 215.301 L 163.031 215.301 Q 185.569 215.301 201.274 223.213 L 201.274 223.213 L 201.274 223.213 Q 216.979 231.125 225.011 244.672 L 225.011 244.672 L 225.011 244.672 Q 233.043 258.219 233.043 275.242 L 233.043 275.242 Z  M 148.166 328.471 L 148.166 328.471 Q 197.318 322.237 197.318 277.4 L 197.318 277.4 L 197.318 277.4 Q 197.318 261.576 186.888 251.625 L 186.888 251.625 L 186.888 251.625 Q 176.458 241.675 154.64 241.675 L 154.64 241.675 L 154.64 241.675 Q 129.944 241.675 111.601 257.26 L 111.601 257.26 L 111.601 257.26 Q 93.259 272.845 83.309 300.538 L 83.309 300.538 L 83.309 300.538 Q 73.359 328.231 73.359 363.716 L 73.359 363.716 L 73.359 363.716 Q 73.359 378.582 76.356 390.091 L 76.356 390.091 L 76.356 390.091 Q 79.353 401.6 84.028 407.953 L 84.028 407.953 L 84.028 407.953 Q 88.704 414.307 93.019 414.307 L 93.019 414.307 L 93.019 414.307 Q 99.014 414.307 102.131 397.763 L 102.131 397.763 L 110.043 352.447 L 110.043 352.447 Q 100.692 351.009 101.891 351.249 L 101.891 351.249 L 101.891 351.249 Q 94.698 350.05 92.54 346.813 L 92.54 346.813 L 92.54 346.813 Q 90.382 343.576 90.382 338.541 L 90.382 338.541 L 90.382 338.541 Q 90.382 333.266 93.379 330.149 L 93.379 330.149 L 93.379 330.149 Q 96.376 327.032 101.651 327.032 L 101.651 327.032 L 101.651 327.032 Q 104.049 327.032 105.248 327.272 L 105.248 327.272 L 105.248 327.272 Q 111.002 328.231 114.119 328.471 L 114.119 328.471 L 114.119 328.471 Q 117.236 309.769 122.99 278.359 L 122.99 278.359 L 122.99 278.359 Q 124.429 270.207 129.584 266.731 L 129.584 266.731 L 129.584 266.731 Q 134.739 263.254 141.692 263.254 L 141.692 263.254 L 141.692 263.254 Q 149.604 263.254 153.081 266.251 L 153.081 266.251 L 153.081 266.251 Q 156.558 269.248 156.558 275.722 L 156.558 275.722 L 156.558 275.722 Q 156.558 279.558 156.078 281.956 L 156.078 281.956 L 148.166 328.471 Z  M 331.108 364.675 L 331.108 364.675 Q 334.225 364.675 336.023 367.553 L 336.023 367.553 L 336.023 367.553 Q 337.822 370.43 337.822 375.465 L 337.822 375.465 L 337.822 375.465 Q 337.822 385.056 333.266 390.331 L 333.266 390.331 L 333.266 390.331 Q 322.956 403.038 310.848 411.19 L 310.848 411.19 L 310.848 411.19 Q 298.74 419.342 283.394 419.342 L 283.394 419.342 L 283.394 419.342 Q 262.295 419.342 252.105 400.161 L 252.105 400.161 L 252.105 400.161 Q 241.915 380.98 241.915 350.529 L 241.915 350.529 L 241.915 350.529 Q 241.915 321.278 249.467 283.874 L 249.467 283.874 L 249.467 283.874 Q 257.02 246.47 271.766 219.616 L 271.766 219.616 L 271.766 219.616 Q 286.511 192.762 306.892 192.762 L 306.892 192.762 L 306.892 192.762 Q 318.4 192.762 324.994 203.432 L 324.994 203.432 L 324.994 203.432 Q 331.588 214.102 331.588 234.002 L 331.588 234.002 L 331.588 234.002 Q 331.588 262.535 315.763 300.178 L 315.763 300.178 L 315.763 300.178 Q 299.938 337.822 272.845 374.746 L 272.845 374.746 L 272.845 374.746 Q 274.523 384.576 278.359 388.772 L 278.359 388.772 L 278.359 388.772 Q 282.196 392.968 288.43 392.968 L 288.43 392.968 L 288.43 392.968 Q 298.26 392.968 305.693 387.333 L 305.693 387.333 L 305.693 387.333 Q 313.126 381.699 324.634 368.032 L 324.634 368.032 L 324.634 368.032 Q 327.512 364.675 331.108 364.675 L 331.108 364.675 Z  M 301.617 216.499 L 301.617 216.499 Q 296.102 216.499 289.149 236.4 L 289.149 236.4 L 289.149 236.4 Q 282.196 256.301 276.921 285.792 L 276.921 285.792 L 276.921 285.792 Q 271.646 315.283 271.166 342.377 L 271.166 342.377 L 271.166 342.377 Q 288.19 314.324 298.26 286.152 L 298.26 286.152 L 298.26 286.152 Q 308.33 257.979 308.33 234.722 L 308.33 234.722 L 308.33 234.722 Q 308.33 216.499 301.617 216.499 L 301.617 216.499 Z  M 345.494 419.342 L 345.494 419.342 Q 330.629 419.342 321.757 408.553 L 321.757 408.553 L 321.757 408.553 Q 312.886 397.763 312.886 380.26 L 312.886 380.26 L 312.886 380.26 Q 312.886 361.079 321.757 343.936 L 321.757 343.936 L 321.757 343.936 Q 330.629 326.792 345.374 316.362 L 345.374 316.362 L 345.374 316.362 Q 360.12 305.933 376.664 305.933 L 376.664 305.933 L 376.664 305.933 Q 381.939 305.933 383.737 307.971 L 383.737 307.971 L 383.737 307.971 Q 385.535 310.009 386.734 315.283 L 386.734 315.283 L 386.734 315.283 Q 391.769 314.324 397.284 314.324 L 397.284 314.324 L 397.284 314.324 Q 409.032 314.324 409.032 322.716 L 409.032 322.716 L 409.032 322.716 Q 409.032 327.751 405.436 346.693 L 405.436 346.693 L 405.436 346.693 Q 399.921 374.266 399.921 385.056 L 399.921 385.056 L 399.921 385.056 Q 399.921 388.652 401.719 390.81 L 401.719 390.81 L 401.719 390.81 Q 403.518 392.968 406.395 392.968 L 406.395 392.968 L 406.395 392.968 Q 410.95 392.968 417.424 387.094 L 417.424 387.094 L 417.424 387.094 Q 423.898 381.219 434.927 368.032 L 434.927 368.032 L 434.927 368.032 Q 437.804 364.675 441.401 364.675 L 441.401 364.675 L 441.401 364.675 Q 444.518 364.675 446.316 367.553 L 446.316 367.553 L 446.316 367.553 Q 448.114 370.43 448.114 375.465 L 448.114 375.465 L 448.114 375.465 Q 448.114 385.056 443.559 390.331 L 443.559 390.331 L 443.559 390.331 Q 433.728 402.559 422.699 410.95 L 422.699 410.95 L 422.699 410.95 Q 411.67 419.342 401.36 419.342 L 401.36 419.342 L 401.36 419.342 Q 393.447 419.342 386.854 413.948 L 386.854 413.948 L 386.854 413.948 Q 380.26 408.553 376.904 399.202 L 376.904 399.202 L 376.904 399.202 Q 364.436 419.342 345.494 419.342 L 345.494 419.342 Z  M 354.126 395.126 L 354.126 395.126 Q 359.401 395.126 364.196 388.892 L 364.196 388.892 L 364.196 388.892 Q 368.991 382.658 371.149 372.348 L 371.149 372.348 L 380.021 328.231 L 380.021 328.231 Q 369.95 328.471 361.439 335.784 L 361.439 335.784 L 361.439 335.784 Q 352.927 343.096 347.892 355.085 L 347.892 355.085 L 347.892 355.085 Q 342.857 367.073 342.857 380.5 L 342.857 380.5 L 342.857 380.5 Q 342.857 387.933 345.854 391.529 L 345.854 391.529 L 345.854 391.529 Q 348.851 395.126 354.126 395.126 L 354.126 395.126 Z  M 551.454 365.155 L 551.454 365.155 Q 554.571 365.155 556.369 368.152 L 556.369 368.152 L 556.369 368.152 Q 558.167 371.149 558.167 375.705 L 558.167 375.705 L 558.167 375.705 Q 558.167 381.219 556.489 384.336 L 556.489 384.336 L 556.489 384.336 Q 554.811 387.453 551.214 389.851 L 551.214 389.851 L 505.179 420.781 L 505.179 420.781 Q 496.068 470.413 481.322 498.825 L 481.322 498.825 L 481.322 498.825 Q 466.576 527.238 443.799 527.238 L 443.799 527.238 L 443.799 527.238 Q 431.57 527.238 423.898 519.685 L 423.898 519.685 L 423.898 519.685 Q 416.225 512.132 416.225 499.904 L 416.225 499.904 L 416.225 499.904 Q 416.225 488.635 421.38 476.886 L 421.38 476.886 L 421.38 476.886 Q 426.535 465.138 440.562 449.913 L 440.562 449.913 L 440.562 449.913 Q 454.588 434.687 480.243 415.027 L 480.243 415.027 L 480.962 409.512 L 480.962 409.512 Q 482.641 400.641 484.799 384.097 L 484.799 384.097 L 484.799 384.097 Q 480.003 401.36 471.372 410.351 L 471.372 410.351 L 471.372 410.351 Q 462.74 419.342 453.149 419.342 L 453.149 419.342 L 453.149 419.342 Q 442.36 419.342 435.527 409.392 L 435.527 409.392 L 435.527 409.392 Q 428.693 399.442 428.693 384.576 L 428.693 384.576 L 428.693 384.576 Q 428.693 366.594 431.091 351.608 L 431.091 351.608 L 431.091 351.608 Q 433.489 336.623 439.003 319.839 L 439.003 319.839 L 439.003 319.839 Q 441.401 312.646 445.717 309.529 L 445.717 309.529 L 445.717 309.529 Q 450.033 306.412 459.383 306.412 L 459.383 306.412 L 459.383 306.412 Q 464.658 306.412 466.696 308.09 L 466.696 308.09 L 466.696 308.09 Q 468.734 309.769 468.734 313.126 L 468.734 313.126 L 468.734 313.126 Q 468.734 315.044 466.097 326.073 L 466.097 326.073 L 466.097 326.073 Q 463.699 334.944 462.261 342.137 L 462.261 342.137 L 462.261 342.137 Q 460.342 351.968 458.904 360.959 L 458.904 360.959 L 458.904 360.959 Q 457.465 369.95 457.465 375.705 L 457.465 375.705 L 457.465 375.705 Q 457.465 384.816 462.5 384.816 L 462.5 384.816 L 462.5 384.816 Q 466.097 384.816 471.492 377.623 L 471.492 377.623 L 471.492 377.623 Q 476.886 370.43 483 355.804 L 483 355.804 L 483 355.804 Q 489.115 341.178 494.869 319.839 L 494.869 319.839 L 494.869 319.839 Q 496.787 312.646 500.743 309.529 L 500.743 309.529 L 500.743 309.529 Q 504.699 306.412 512.612 306.412 L 512.612 306.412 L 512.612 306.412 Q 518.126 306.412 520.284 307.851 L 520.284 307.851 L 520.284 307.851 Q 522.442 309.289 522.442 312.646 L 522.442 312.646 L 522.442 312.646 Q 522.442 318.64 516.208 353.886 L 516.208 353.886 L 509.974 392.488 L 509.974 392.488 Q 528.436 378.582 545.939 367.073 L 545.939 367.073 L 545.939 367.073 Q 549.056 365.155 551.454 365.155 L 551.454 365.155 Z  M 446.436 503.98 L 446.436 503.98 Q 452.43 503.98 459.863 490.074 L 459.863 490.074 L 459.863 490.074 Q 467.296 476.167 474.729 443.799 L 474.729 443.799 L 474.729 443.799 Q 456.266 459.383 447.994 472.211 L 447.994 472.211 L 447.994 472.211 Q 439.723 485.039 439.723 494.629 L 439.723 494.629 L 439.723 494.629 Q 439.723 498.705 441.281 501.343 L 441.281 501.343 L 441.281 501.343 Q 442.839 503.98 446.436 503.98 L 446.436 503.98 Z  M 570.635 419.342 L 570.635 419.342 Q 555.77 419.342 546.898 408.553 L 546.898 408.553 L 546.898 408.553 Q 538.027 397.763 538.027 380.26 L 538.027 380.26 L 538.027 380.26 Q 538.027 361.079 546.898 343.936 L 546.898 343.936 L 546.898 343.936 Q 555.77 326.792 570.515 316.362 L 570.515 316.362 L 570.515 316.362 Q 585.261 305.933 601.805 305.933 L 601.805 305.933 L 601.805 305.933 Q 607.08 305.933 608.878 307.971 L 608.878 307.971 L 608.878 307.971 Q 610.676 310.009 611.875 315.283 L 611.875 315.283 L 611.875 315.283 Q 616.91 314.324 622.425 314.324 L 622.425 314.324 L 622.425 314.324 Q 634.174 314.324 634.174 322.716 L 634.174 322.716 L 634.174 322.716 Q 634.174 327.751 630.577 346.693 L 630.577 346.693 L 630.577 346.693 Q 625.062 374.266 625.062 385.056 L 625.062 385.056 L 625.062 385.056 Q 625.062 388.652 626.861 390.81 L 626.861 390.81 L 626.861 390.81 Q 628.659 392.968 631.536 392.968 L 631.536 392.968 L 631.536 392.968 Q 636.092 392.968 642.565 387.094 L 642.565 387.094 L 642.565 387.094 Q 649.039 381.219 660.068 368.032 L 660.068 368.032 L 660.068 368.032 Q 662.946 364.675 666.542 364.675 L 666.542 364.675 L 666.542 364.675 Q 669.659 364.675 671.457 367.553 L 671.457 367.553 L 671.457 367.553 Q 673.256 370.43 673.256 375.465 L 673.256 375.465 L 673.256 375.465 Q 673.256 385.056 668.7 390.331 L 668.7 390.331 L 668.7 390.331 Q 658.87 402.559 647.84 410.95 L 647.84 410.95 L 647.84 410.95 Q 636.811 419.342 626.501 419.342 L 626.501 419.342 L 626.501 419.342 Q 618.589 419.342 611.995 413.948 L 611.995 413.948 L 611.995 413.948 Q 605.401 408.553 602.045 399.202 L 602.045 399.202 L 602.045 399.202 Q 589.577 419.342 570.635 419.342 L 570.635 419.342 Z  M 579.267 395.126 L 579.267 395.126 Q 584.542 395.126 589.337 388.892 L 589.337 388.892 L 589.337 388.892 Q 594.133 382.658 596.29 372.348 L 596.29 372.348 L 605.162 328.231 L 605.162 328.231 Q 595.092 328.471 586.58 335.784 L 586.58 335.784 L 586.58 335.784 Q 578.068 343.096 573.033 355.085 L 573.033 355.085 L 573.033 355.085 Q 567.998 367.073 567.998 380.5 L 567.998 380.5 L 567.998 380.5 Q 567.998 387.933 570.995 391.529 L 570.995 391.529 L 570.995 391.529 Q 573.992 395.126 579.267 395.126 L 579.267 395.126 Z " fill="rgb(255,255,255)"/></g></svg>