<?xml version="1.0" encoding="UTF-8" standalone="no"?><!-- Generator: Gravit.io --><svg xmlns="http://www.w3.org/2000/svg" xmlns:xlink="http://www.w3.org/1999/xlink" style="isolation:isolate" viewBox="0 0 880 480" width="880pt" height="480pt"><defs><clipPath id="_clipPath_viT8Re2pOevohgwc6wZEK9jCWNW4WSy7"><rect width="880" height="480"/></clipPath></defs><g clip-path="url(#_clipPath_viT8Re2pOevohgwc6wZEK9jCWNW4WSy7)"><path d=" M 264.594 122.897 L 264.594 122.897 Q 264.594 151.055 250.018 174.575 L 250.018 174.575 L 250.018 174.575 Q 235.442 198.095 207.616 213.002 L 207.616 213.002 L 207.616 213.002 Q 179.789 227.909 141.362 230.559 L 141.362 230.559 L 127.117 310.394 L 127.117 310.394 Q 118.836 356.441 82.065 356.441 L 82.065 356.441 L 82.065 356.441 Q 61.858 356.441 44.797 344.515 L 44.797 344.515 L 44.797 344.515 Q 27.737 332.589 17.468 308.076 L 17.468 308.076 L 17.468 308.076 Q 7.198 283.562 7.198 247.785 L 7.198 247.785 L 7.198 247.785 Q 7.198 180.537 28.897 133.663 L 28.897 133.663 L 28.897 133.663 Q 50.595 86.789 87.2 63.434 L 87.2 63.434 L 87.2 63.434 Q 123.805 40.08 167.863 40.08 L 167.863 40.08 L 167.863 40.08 Q 199.003 40.08 220.701 51.012 L 220.701 51.012 L 220.701 51.012 Q 242.399 61.944 253.496 80.66 L 253.496 80.66 L 253.496 80.66 Q 264.594 99.377 264.594 122.897 L 264.594 122.897 Z  M 147.325 196.438 L 147.325 196.438 Q 215.235 187.825 215.235 125.878 L 215.235 125.878 L 215.235 125.878 Q 215.235 104.014 200.825 90.267 L 200.825 90.267 L 200.825 90.267 Q 186.414 76.519 156.269 76.519 L 156.269 76.519 L 156.269 76.519 Q 122.148 76.519 96.806 98.052 L 96.806 98.052 L 96.806 98.052 Q 71.464 119.584 57.717 157.846 L 57.717 157.846 L 57.717 157.846 Q 43.969 196.107 43.969 245.135 L 43.969 245.135 L 43.969 245.135 Q 43.969 265.673 48.11 281.574 L 48.11 281.574 L 48.11 281.574 Q 52.251 297.475 58.711 306.254 L 58.711 306.254 L 58.711 306.254 Q 65.17 315.032 71.133 315.032 L 71.133 315.032 L 71.133 315.032 Q 79.415 315.032 83.721 292.175 L 83.721 292.175 L 94.653 229.565 L 94.653 229.565 Q 81.734 227.577 83.39 227.909 L 83.39 227.909 L 83.39 227.909 Q 73.452 226.252 70.471 221.78 L 70.471 221.78 L 70.471 221.78 Q 67.489 217.308 67.489 210.352 L 67.489 210.352 L 67.489 210.352 Q 67.489 203.064 71.63 198.757 L 71.63 198.757 L 71.63 198.757 Q 75.771 194.451 83.059 194.451 L 83.059 194.451 L 83.059 194.451 Q 86.372 194.451 88.028 194.782 L 88.028 194.782 L 88.028 194.782 Q 95.978 196.107 100.285 196.438 L 100.285 196.438 L 100.285 196.438 Q 104.591 170.599 112.542 127.203 L 112.542 127.203 L 112.542 127.203 Q 114.529 115.94 121.652 111.137 L 121.652 111.137 L 121.652 111.137 Q 128.774 106.333 138.381 106.333 L 138.381 106.333 L 138.381 106.333 Q 149.312 106.333 154.116 110.474 L 154.116 110.474 L 154.116 110.474 Q 158.919 114.615 158.919 123.559 L 158.919 123.559 L 158.919 123.559 Q 158.919 128.86 158.257 132.172 L 158.257 132.172 L 147.325 196.438 Z  M 400.082 246.46 L 400.082 246.46 Q 404.389 246.46 406.873 250.435 L 406.873 250.435 L 406.873 250.435 Q 409.358 254.41 409.358 261.367 L 409.358 261.367 L 409.358 261.367 Q 409.358 274.617 403.064 281.905 L 403.064 281.905 L 403.064 281.905 Q 388.819 299.463 372.09 310.726 L 372.09 310.726 L 372.09 310.726 Q 355.361 321.989 334.16 321.989 L 334.16 321.989 L 334.16 321.989 Q 305.008 321.989 290.929 295.487 L 290.929 295.487 L 290.929 295.487 Q 276.851 268.986 276.851 226.915 L 276.851 226.915 L 276.851 226.915 Q 276.851 186.5 287.286 134.822 L 287.286 134.822 L 287.286 134.822 Q 297.72 83.145 318.093 46.043 L 318.093 46.043 L 318.093 46.043 Q 338.466 8.941 366.624 8.941 L 366.624 8.941 L 366.624 8.941 Q 382.525 8.941 391.635 23.682 L 391.635 23.682 L 391.635 23.682 Q 400.745 38.423 400.745 65.919 L 400.745 65.919 L 400.745 65.919 Q 400.745 105.34 378.881 157.349 L 378.881 157.349 L 378.881 157.349 Q 357.017 209.358 319.584 260.373 L 319.584 260.373 L 319.584 260.373 Q 321.903 273.955 327.203 279.752 L 327.203 279.752 L 327.203 279.752 Q 332.504 285.549 341.117 285.549 L 341.117 285.549 L 341.117 285.549 Q 354.699 285.549 364.968 277.765 L 364.968 277.765 L 364.968 277.765 Q 375.237 269.98 391.138 251.097 L 391.138 251.097 L 391.138 251.097 Q 395.113 246.46 400.082 246.46 L 400.082 246.46 Z  M 359.336 41.736 L 359.336 41.736 Q 351.717 41.736 342.11 69.231 L 342.11 69.231 L 342.11 69.231 Q 332.504 96.727 325.216 137.473 L 325.216 137.473 L 325.216 137.473 Q 317.928 178.219 317.265 215.652 L 317.265 215.652 L 317.265 215.652 Q 340.785 176.893 354.699 137.969 L 354.699 137.969 L 354.699 137.969 Q 368.612 99.045 368.612 66.913 L 368.612 66.913 L 368.612 66.913 Q 368.612 41.736 359.336 41.736 L 359.336 41.736 Z  M 419.958 321.989 L 419.958 321.989 Q 399.42 321.989 387.163 307.082 L 387.163 307.082 L 387.163 307.082 Q 374.906 292.175 374.906 267.992 L 374.906 267.992 L 374.906 267.992 Q 374.906 241.491 387.163 217.805 L 387.163 217.805 L 387.163 217.805 Q 399.42 194.119 419.793 179.709 L 419.793 179.709 L 419.793 179.709 Q 440.166 165.299 463.023 165.299 L 463.023 165.299 L 463.023 165.299 Q 470.311 165.299 472.795 168.115 L 472.795 168.115 L 472.795 168.115 Q 475.28 170.931 476.936 178.219 L 476.936 178.219 L 476.936 178.219 Q 483.893 176.893 491.512 176.893 L 491.512 176.893 L 491.512 176.893 Q 507.744 176.893 507.744 188.488 L 507.744 188.488 L 507.744 188.488 Q 507.744 195.444 502.775 221.615 L 502.775 221.615 L 502.775 221.615 Q 495.156 259.71 495.156 274.617 L 495.156 274.617 L 495.156 274.617 Q 495.156 279.587 497.641 282.568 L 497.641 282.568 L 497.641 282.568 Q 500.125 285.549 504.1 285.549 L 504.1 285.549 L 504.1 285.549 Q 510.394 285.549 519.339 277.433 L 519.339 277.433 L 519.339 277.433 Q 528.283 269.317 543.521 251.097 L 543.521 251.097 L 543.521 251.097 Q 547.496 246.46 552.465 246.46 L 552.465 246.46 L 552.465 246.46 Q 556.772 246.46 559.256 250.435 L 559.256 250.435 L 559.256 250.435 Q 561.741 254.41 561.741 261.367 L 561.741 261.367 L 561.741 261.367 Q 561.741 274.617 555.447 281.905 L 555.447 281.905 L 555.447 281.905 Q 541.865 298.8 526.627 310.394 L 526.627 310.394 L 526.627 310.394 Q 511.388 321.989 497.144 321.989 L 497.144 321.989 L 497.144 321.989 Q 486.212 321.989 477.102 314.535 L 477.102 314.535 L 477.102 314.535 Q 467.992 307.082 463.354 294.162 L 463.354 294.162 L 463.354 294.162 Q 446.128 321.989 419.958 321.989 L 419.958 321.989 Z  M 431.884 288.531 L 431.884 288.531 Q 439.172 288.531 445.797 279.918 L 445.797 279.918 L 445.797 279.918 Q 452.423 271.305 455.404 257.06 L 455.404 257.06 L 467.661 196.107 L 467.661 196.107 Q 453.748 196.438 441.988 206.542 L 441.988 206.542 L 441.988 206.542 Q 430.228 216.646 423.271 233.209 L 423.271 233.209 L 423.271 233.209 Q 416.314 249.772 416.314 268.323 L 416.314 268.323 L 416.314 268.323 Q 416.314 278.593 420.455 283.562 L 420.455 283.562 L 420.455 283.562 Q 424.596 288.531 431.884 288.531 L 431.884 288.531 Z  M 704.517 247.122 L 704.517 247.122 Q 708.824 247.122 711.308 251.263 L 711.308 251.263 L 711.308 251.263 Q 713.793 255.404 713.793 261.698 L 713.793 261.698 L 713.793 261.698 Q 713.793 269.317 711.474 273.624 L 711.474 273.624 L 711.474 273.624 Q 709.155 277.93 704.186 281.243 L 704.186 281.243 L 640.583 323.976 L 640.583 323.976 Q 627.995 392.549 607.622 431.804 L 607.622 431.804 L 607.622 431.804 Q 587.249 471.059 555.778 471.059 L 555.778 471.059 L 555.778 471.059 Q 538.883 471.059 528.283 460.624 L 528.283 460.624 L 528.283 460.624 Q 517.682 450.189 517.682 433.295 L 517.682 433.295 L 517.682 433.295 Q 517.682 417.725 524.805 401.493 L 524.805 401.493 L 524.805 401.493 Q 531.927 385.261 551.306 364.225 L 551.306 364.225 L 551.306 364.225 Q 570.685 343.19 606.131 316.026 L 606.131 316.026 L 607.125 308.407 L 607.125 308.407 Q 609.444 296.15 612.425 273.292 L 612.425 273.292 L 612.425 273.292 Q 605.8 297.144 593.874 309.566 L 593.874 309.566 L 593.874 309.566 Q 581.948 321.989 568.698 321.989 L 568.698 321.989 L 568.698 321.989 Q 553.79 321.989 544.349 308.241 L 544.349 308.241 L 544.349 308.241 Q 534.908 294.494 534.908 273.955 L 534.908 273.955 L 534.908 273.955 Q 534.908 249.11 538.221 228.406 L 538.221 228.406 L 538.221 228.406 Q 541.534 207.701 549.153 184.513 L 549.153 184.513 L 549.153 184.513 Q 552.465 174.575 558.428 170.268 L 558.428 170.268 L 558.428 170.268 Q 564.391 165.962 577.311 165.962 L 577.311 165.962 L 577.311 165.962 Q 584.598 165.962 587.414 168.28 L 587.414 168.28 L 587.414 168.28 Q 590.23 170.599 590.23 175.237 L 590.23 175.237 L 590.23 175.237 Q 590.23 177.887 586.586 193.126 L 586.586 193.126 L 586.586 193.126 Q 583.273 205.383 581.286 215.321 L 581.286 215.321 L 581.286 215.321 Q 578.636 228.902 576.648 241.325 L 576.648 241.325 L 576.648 241.325 Q 574.66 253.748 574.66 261.698 L 574.66 261.698 L 574.66 261.698 Q 574.66 274.286 581.617 274.286 L 581.617 274.286 L 581.617 274.286 Q 586.586 274.286 594.04 264.348 L 594.04 264.348 L 594.04 264.348 Q 601.493 254.41 609.94 234.203 L 609.94 234.203 L 609.94 234.203 Q 618.388 213.995 626.338 184.513 L 626.338 184.513 L 626.338 184.513 Q 628.988 174.575 634.454 170.268 L 634.454 170.268 L 634.454 170.268 Q 639.92 165.962 650.852 165.962 L 650.852 165.962 L 650.852 165.962 Q 658.471 165.962 661.453 167.949 L 661.453 167.949 L 661.453 167.949 Q 664.434 169.937 664.434 174.575 L 664.434 174.575 L 664.434 174.575 Q 664.434 182.856 655.821 231.553 L 655.821 231.553 L 647.208 284.887 L 647.208 284.887 Q 672.716 265.673 696.898 249.772 L 696.898 249.772 L 696.898 249.772 Q 701.205 247.122 704.517 247.122 L 704.517 247.122 Z  M 559.422 438.926 L 559.422 438.926 Q 567.704 438.926 577.973 419.713 L 577.973 419.713 L 577.973 419.713 Q 588.242 400.499 598.512 355.778 L 598.512 355.778 L 598.512 355.778 Q 573.004 377.31 561.575 395.033 L 561.575 395.033 L 561.575 395.033 Q 550.147 412.756 550.147 426.007 L 550.147 426.007 L 550.147 426.007 Q 550.147 431.638 552.3 435.282 L 552.3 435.282 L 552.3 435.282 Q 554.453 438.926 559.422 438.926 L 559.422 438.926 Z  M 731.019 321.989 L 731.019 321.989 Q 710.48 321.989 698.223 307.082 L 698.223 307.082 L 698.223 307.082 Q 685.966 292.175 685.966 267.992 L 685.966 267.992 L 685.966 267.992 Q 685.966 241.491 698.223 217.805 L 698.223 217.805 L 698.223 217.805 Q 710.48 194.119 730.853 179.709 L 730.853 179.709 L 730.853 179.709 Q 751.226 165.299 774.084 165.299 L 774.084 165.299 L 774.084 165.299 Q 781.372 165.299 783.856 168.115 L 783.856 168.115 L 783.856 168.115 Q 786.341 170.931 787.997 178.219 L 787.997 178.219 L 787.997 178.219 Q 794.954 176.893 802.573 176.893 L 802.573 176.893 L 802.573 176.893 Q 818.805 176.893 818.805 188.488 L 818.805 188.488 L 818.805 188.488 Q 818.805 195.444 813.836 221.615 L 813.836 221.615 L 813.836 221.615 Q 806.217 259.71 806.217 274.617 L 806.217 274.617 L 806.217 274.617 Q 806.217 279.587 808.701 282.568 L 808.701 282.568 L 808.701 282.568 Q 811.186 285.549 815.161 285.549 L 815.161 285.549 L 815.161 285.549 Q 821.455 285.549 830.399 277.433 L 830.399 277.433 L 830.399 277.433 Q 839.344 269.317 854.582 251.097 L 854.582 251.097 L 854.582 251.097 Q 858.557 246.46 863.526 246.46 L 863.526 246.46 L 863.526 246.46 Q 867.832 246.46 870.317 250.435 L 870.317 250.435 L 870.317 250.435 Q 872.802 254.41 872.802 261.367 L 872.802 261.367 L 872.802 261.367 Q 872.802 274.617 866.507 281.905 L 866.507 281.905 L 866.507 281.905 Q 852.925 298.8 837.687 310.394 L 837.687 310.394 L 837.687 310.394 Q 822.449 321.989 808.204 321.989 L 808.204 321.989 L 808.204 321.989 Q 797.272 321.989 788.163 314.535 L 788.163 314.535 L 788.163 314.535 Q 779.053 307.082 774.415 294.162 L 774.415 294.162 L 774.415 294.162 Q 757.189 321.989 731.019 321.989 L 731.019 321.989 Z  M 742.944 288.531 L 742.944 288.531 Q 750.232 288.531 756.858 279.918 L 756.858 279.918 L 756.858 279.918 Q 763.483 271.305 766.465 257.06 L 766.465 257.06 L 778.721 196.107 L 778.721 196.107 Q 764.808 196.438 753.048 206.542 L 753.048 206.542 L 753.048 206.542 Q 741.288 216.646 734.332 233.209 L 734.332 233.209 L 734.332 233.209 Q 727.375 249.772 727.375 268.323 L 727.375 268.323 L 727.375 268.323 Q 727.375 278.593 731.516 283.562 L 731.516 283.562 L 731.516 283.562 Q 735.657 288.531 742.944 288.531 L 742.944 288.531 Z " fill="rgb(0,0,0)"/></g></svg>